<svg class="my-svg-burger" width="30" height="30" viewBox="0 0 20 20" fill="black" xmlns="http://www.w3.org/2000/svg">
<g id="bars-right">
<g id="&#240;&#159;&#142;&#168; Icon Color">
<path d="M1.47059 2.5C0.658405 2.5 0 3.17157 0 4C0 4.82843 0.658405 5.5 1.47059 5.5H18.5294C19.3416 5.5 20 4.82843 20 4C20 3.17157 19.3416 2.5 18.5294 2.5H1.47059Z"/>
<path d="M7.35294 8.5C6.54076 8.5 5.88235 9.17157 5.88235 10C5.88235 10.8284 6.54076 11.5 7.35294 11.5H18.5294C19.3416 11.5 20 10.8284 20 10C20 9.17157 19.3416 8.5 18.5294 8.5H7.35294Z"/>
<path d="M12.0588 14.5C11.2466 14.5 10.5882 15.1716 10.5882 16C10.5882 16.8284 11.2466 17.5 12.0588 17.5H18.5294C19.3416 17.5 20 16.8284 20 16C20 15.1716 19.3416 14.5 18.5294 14.5H12.0588Z"/>
</g>
</g>
</svg>
