<svg class="my-svg-logo" width="30" height="30" viewBox="0 0 20 20" fill="black" xmlns="http://www.w3.org/2000/svg">
<g id="logo dragon" clip-path="url(#clip0_41941_3903)">
<path id="Vector" d="M8.04626 6.08388C7.6689 6.07377 7.30371 6.15462 6.97505 6.31632C6.43944 6.58919 5.79428 7.00354 5.20998 7.6099C3.6762 9.20667 3.68837 11.0157 3.71272 11.5614C3.73707 11.9859 3.95618 14.3103 6.32988 15.9879C8.18016 17.2916 10.2252 17.433 10.8947 17.4533C11.3816 17.4735 13.9257 17.5139 16.0682 15.8868C18.2958 14.1991 18.4054 11.9757 18.4175 11.5917C18.4419 11.2683 18.454 10.8439 18.3567 10.3487C18.2715 9.90399 18.1254 9.53007 17.9915 9.23699C17.6263 9.07529 17.1029 8.81253 16.5916 8.37797C16.056 7.92319 15.7395 7.45831 15.5569 7.13492C15.5204 7.00354 15.4595 6.82163 15.3135 6.62961C15.07 6.30621 14.7535 6.14452 14.5831 6.07377C14.8996 6.03335 15.5934 5.99293 16.3481 6.2759C16.7498 6.42749 17.042 6.62961 17.2368 6.7812C17.2733 6.70035 17.3341 6.52855 17.2976 6.32643C17.2611 6.08388 17.1272 5.91208 17.0542 5.84133C17.2976 5.94239 18.1497 6.31632 18.5758 7.15513C18.8558 7.72107 18.8314 8.22638 18.7949 8.46892C19.087 8.84285 19.4522 9.39869 19.7079 10.1162C19.9513 10.7832 20.0122 11.3795 20.0122 11.814C20.0365 12.3092 20.1217 14.9975 17.6385 17.1804C14.6561 19.7979 10.5295 19.424 10.0913 19.3734C10.3469 19.4947 10.6756 19.616 11.0651 19.7069C12.039 19.9293 12.8789 19.808 13.3536 19.7069C12.3189 19.9495 10.3591 20.2628 8.14364 19.6968C3.04321 18.383 1.60682 13.6534 1.50943 13.3401C1.59464 13.8757 1.72855 14.4517 1.91114 15.0581C2.19111 16.0384 2.5563 16.8974 2.92149 17.6352C2.33719 17.1096 1.55813 16.2708 0.93731 15.1086C0.206939 13.7443 0.0365186 12.5316 0 11.7635C0.0121729 10.9247 0.17042 9.45932 1.09556 7.87266C2.41023 5.60889 4.50396 4.43658 5.41692 3.98181C5.34388 3.98181 5.2465 3.9616 5.13694 3.92117C4.91783 3.84032 4.7961 3.70894 4.74741 3.64831C5.08825 3.60788 5.5143 3.52703 5.98904 3.37544C6.46379 3.22385 6.84114 3.04194 7.12112 2.89035C6.3664 2.6377 5.50213 2.3143 4.58917 1.86963C3.71272 1.44517 2.958 1.00051 2.34936 0.596261L3.5423 1.13188L2.62934 0.474987C3.4084 0.90955 4.3944 1.37443 5.57517 1.77868C6.39075 2.06165 7.15764 2.26377 7.83932 2.41536C7.46196 2.24356 7.01156 2.00101 6.56117 1.66751C5.80645 1.12178 5.31954 0.535624 5.02739 0.101061C5.34388 0.333502 5.67255 0.555836 5.98904 0.788277L5.16129 0C5.84297 0.555836 6.80463 1.22284 8.0706 1.79889C8.7888 2.12228 9.47048 2.36483 10.067 2.54674C10.5904 2.61748 11.1016 2.68823 11.6251 2.75897C11.7833 2.77918 12.0633 2.83982 12.3311 3.02173C12.4407 3.09247 12.5259 3.17332 12.5867 3.23396C12.6598 3.31481 12.7572 3.40576 12.8667 3.49672C13.0493 3.64831 13.2197 3.76958 13.3901 3.86054L15.8491 3.83022C16.0073 3.83022 16.1169 3.95149 16.0803 4.07276C15.9586 4.47701 15.703 5.05306 15.0822 5.50783C14.9361 5.619 14.7778 5.70995 14.6318 5.7807C14.7292 5.66953 14.8631 5.50783 14.9483 5.2855C15.0091 5.1238 15.0456 4.98231 15.0578 4.87115C14.9604 4.952 14.8509 5.04295 14.6926 5.1238C14.4614 5.25518 14.2301 5.32592 14.0718 5.36635C14.157 5.27539 14.2422 5.15412 14.3274 5.02274C14.4127 4.89136 14.4735 4.75998 14.5222 4.64881C14.3518 4.65892 14.1083 4.67913 13.8162 4.78019C13.4997 4.88125 13.2806 5.02274 13.1467 5.1238C13.1467 5.03284 13.171 4.92168 13.2197 4.7903C13.2562 4.69934 13.3049 4.61849 13.3414 4.55786C13.2684 4.51743 13.1954 4.48711 13.1102 4.44669C12.8058 4.33552 12.5259 4.33552 12.3433 4.34563C12.1607 4.34563 11.6738 4.37595 11.199 4.65892C11.0286 4.75998 10.8947 4.87115 10.7851 4.98231C10.5539 5.22486 10.566 5.57857 10.8217 5.81102V5.82112C10.9312 5.91208 11.053 5.98282 11.1625 6.02324C11.5399 6.17484 11.9781 6.14452 12.3433 5.98282C12.3554 5.97271 12.3676 5.97271 12.3798 5.96261C12.5259 5.89186 12.6354 5.81102 12.7085 5.74027C12.7206 5.81102 12.7328 5.9525 12.6719 6.1243C12.6233 6.26579 12.538 6.36685 12.4772 6.41738C12.6233 6.43759 12.7937 6.4477 12.9884 6.4477C13.3293 6.43759 13.5971 6.36685 13.7797 6.30621C13.6579 6.52855 13.3901 6.96311 12.818 7.32693C12.3798 7.6099 11.9416 7.74128 11.6738 7.79181C11.7712 7.67054 11.8807 7.49874 11.9537 7.2764C11.9781 7.21576 11.9903 7.15513 12.0024 7.1046C12.039 6.95301 11.9659 6.80141 11.8198 6.70035C11.6494 6.57908 11.4668 6.56897 11.406 6.55887H10.3956C10.0426 6.55887 9.70177 6.59929 9.36093 6.68014C9.17833 6.72057 8.98357 6.76099 8.77663 6.79131C8.26537 6.87216 7.8028 6.91258 7.41327 6.92269C7.69324 6.88226 8.18016 6.7812 8.64273 6.47802C8.81315 6.36685 8.94705 6.24558 9.04443 6.14452L8.04626 6.08388Z"/>
</g>
<defs>
<clipPath id="clip0_41941_3903">
<rect width="20" height="20" fill="none"/>
</clipPath>
</defs>
</svg>
